# xmcd
#
# Track frame offsets:
#	150
#	18477
#	33599
#	51731
#	71894
#	90905
#	107346
#	127376
#	147629
#	167345
#	184036
#	206496
#
# Disc length: 2974 seconds
#
# Revision: 2
# Processed by: cddbd v1.5.2PL0 Copyright (c) Steve Scherf et al.
# Submitted via: audiograbber 1.83.01
#
DISCID=b00b9c0c
DTITLE=Status Quo and Friends - Zoom Platinum Artists Series - Hits of Status Quo
DTITLE=and Friends ZM-PL-86
DYEAR=1900
DGENRE=Karaoke
TTITLE0=Status Quo - Down Down
TTITLE1=Status Quo - Rockin' All Over The World
TTITLE2=Status Quo - Caroline
TTITLE3=Status Quo - Burning Bridges
TTITLE4=Status Quo - Whatever You Want
TTITLE5=Status Quo - Jam Side Down
TTITLE6=Whitesnake - Here I Go Again
TTITLE7=Whitesnake - Is This Love
TTITLE8=Whitesnake - Fool For Your Loving
TTITLE9=Dave Edmonds - Girls Talk
TTITLE10=Bad Company - Feel Like Makin' Love
TTITLE11=Tom Robinson Band - 2-4-6-8
EXTD=
EXTT0=
EXTT1=
EXTT2=
EXTT3=
EXTT4=
EXTT5=
EXTT6=
EXTT7=
EXTT8=
EXTT9=
EXTT10=
EXTT11=
PLAYORDER=
